Coordinates
version=1
nRows=17
nColumns=38
inDegrees=no

Units are S.I. units (second, meters, Newtons, ...)
If the header above contains a line with 'inDegrees', this indicates whether rotational values are in degrees (yes) or radians (no).

endheader
time	pelvis_tilt	pelvis_list	pelvis_rotation	pelvis_tx	pelvis_ty	pelvis_tz	hip_flexion_r	hip_adduction_r	hip_rotation_r	knee_angle_r	ankle_angle_r	subtalar_angle_r	mtp_angle_r	hip_flexion_l	hip_adduction_l	hip_rotation_l	knee_angle_l	ankle_angle_l	subtalar_angle_l	mtp_angle_l	lumbar_extension	lumbar_bending	lumbar_rotation	arm_flex_r	arm_add_r	arm_rot_r	elbow_flex_r	pro_sup_r	wrist_flex_r	wrist_dev_r	arm_flex_l	arm_add_l	arm_rot_l	elbow_flex_l	pro_sup_l	wrist_flex_l	wrist_dev_l
3.8	-2.63896	1.41872	1.19877	0.640554	1.26524	1.05044	0.322865	0.0301615	0.0596962	0.73344	-0.161902	0	0	0.0492295	-0.137605	-0.430001	0.440751	-0.13826	0	0	-0.298815	0.126706	-0.159622	0.822082	-0.34294	0.810907	0.643777	1.08758	0	0	0.30343	-0.384827	0.198875	1.11982	1.33562	0	0
3.81	-2.6212	1.41762	1.17884	0.641018	1.2637	1.05034	0.339718	0.0360824	0.0670703	0.762541	-0.168996	0	0	0.044822	-0.139767	-0.432207	0.436971	-0.136867	0	0	-0.2996	0.129518	-0.158011	0.819288	-0.346731	0.81072	0.650449	1.08822	0	0	0.296552	-0.383781	0.194527	1.12559	1.33927	0	0
3.82	-2.60107	1.4167	1.15674	0.641455	1.26213	1.05037	0.35582	0.0423921	0.0730257	0.790314	-0.174764	0	0	0.039989	-0.142366	-0.434208	0.433089	-0.135808	0	0	-0.301269	0.132499	-0.15627	0.816301	-0.350998	0.809974	0.658245	1.08892	0	0	0.289912	-0.382746	0.190099	1.13192	1.34262	0	0
3.83	-2.58022	1.41557	1.13397	0.641886	1.26055	1.05047	0.371007	0.0489213	0.0777531	0.814725	-0.178067	0	0	0.0351152	-0.145189	-0.435574	0.428837	-0.135099	0	0	-0.303133	0.135855	-0.154441	0.813313	-0.355298	0.80861	0.666327	1.09068	0	0	0.283254	-0.381201	0.184951	1.13827	1.34651	0	0
3.84	-2.56039	1.41419	1.11231	0.642242	1.25899	1.05062	0.385782	0.055443	0.0815464	0.836007	-0.178338	0	0	0.0309541	-0.148413	-0.437195	0.425545	-0.134789	0	0	-0.304988	0.139208	-0.152691	0.810128	-0.359283	0.806659	0.67447	1.09416	0	0	0.276629	-0.379256	0.178961	1.14436	1.3513	0	0
3.85	-2.54271	1.41262	1.09293	0.642518	1.25736	1.05077	0.400349	0.0615847	0.0841203	0.854166	-0.175907	0	0	0.0274769	-0.151717	-0.438958	0.422948	-0.134924	0	0	-0.306596	0.142227	-0.1511	0.806392	-0.362922	0.803846	0.682733	1.0989	0	0	0.269995	-0.377044	0.172457	1.15001	1.35703	0	0
3.86	-2.52738	1.41086	1.07604	0.642783	1.25569	1.05092	0.41477	0.0669888	0.0851313	0.86867	-0.172199	0	0	0.0246501	-0.154896	-0.440778	0.420951	-0.135398	0	0	-0.30797	0.145017	-0.149608	0.8022	-0.366223	0.799578	0.690935	1.10378	0	0	0.263344	-0.374271	0.165327	1.15528	1.36306	0	0
3.87	-2.51369	1.40889	1.06098	0.643046	1.25392	1.05109	0.428777	0.0718719	0.0846074	0.87885	-0.168663	0	0	0.0222198	-0.157934	-0.442432	0.419053	-0.136202	0	0	-0.30918	0.147611	-0.148279	0.797578	-0.369176	0.794154	0.69889	1.10873	0	0	0.256575	-0.371039	0.157742	1.16057	1.36799	0	0
3.88	-2.50093	1.40697	1.04692	0.643292	1.25209	1.0513	0.441863	0.0766018	0.0835557	0.883789	-0.16641	0	0	0.0195012	-0.160392	-0.442901	0.416055	-0.137702	0	0	-0.310426	0.149945	-0.146938	0.7929	-0.371636	0.788449	0.705707	1.11375	0	0	0.249852	-0.36827	0.151055	1.16598	1.37078	0	0
3.89	-2.51726	1.40733	1.06275	0.64319	1.25029	1.05271	0.453877	0.0762332	0.0838188	0.881583	-0.165249	0	0	-0.00721512	-0.117533	-0.330254	0.322001	-0.148928	0	0	-0.314871	0.145212	-0.145504	0.781239	-0.371328	0.761334	0.714377	1.13847	0	0	0.245933	-0.365421	0.143339	1.1709	1.38148	0	0
3.9	-2.49196	1.39846	1.0348	0.643593	1.2481	1.05113	0.473167	0.0864567	0.0810821	0.88313	-0.159793	0	0	0.0225727	-0.16813	-0.45084	0.419771	-0.135958	0	0	-0.310394	0.152906	-0.141647	0.769553	-0.376727	0.741503	0.729981	1.16688	0	0	0.232876	-0.357722	0.127664	1.18314	1.39768	0	0
3.91	-2.48735	1.39444	1.02876	0.643771	1.24603	1.05112	0.487639	0.0913904	0.080548	0.876708	-0.158437	0	0	0.0235054	-0.17108	-0.452275	0.419946	-0.136121	0	0	-0.310445	0.154797	-0.140256	0.760927	-0.379042	0.727136	0.740085	1.18081	0	0	0.223365	-0.353178	0.11636	1.19226	1.40669	0	0
3.92	-2.48488	1.39016	1.02478	0.643958	1.24388	1.05105	0.50201	0.0961905	0.0809947	0.867012	-0.157902	0	0	0.024781	-0.17362	-0.453255	0.419997	-0.136141	0	0	-0.310119	0.156561	-0.138567	0.751369	-0.381568	0.71167	0.751138	1.1938	0	0	0.213621	-0.348178	0.105045	1.20153	1.41591	0	0
3.93	-2.48585	1.3855	1.02399	0.644101	1.2417	1.05088	0.516452	0.101094	0.0826988	0.854198	-0.158454	0	0	0.0267458	-0.175524	-0.453561	0.41986	-0.135996	0	0	-0.309229	0.157838	-0.13662	0.741169	-0.384141	0.695616	0.762792	1.20649	0	0	0.203796	-0.343222	0.0941343	1.21105	1.42506	0	0
3.94	-2.49031	1.38056	1.02649	0.644209	1.23952	1.05058	0.530999	0.105552	0.0845731	0.838587	-0.16042	0	0	0.0294584	-0.176991	-0.453906	0.419942	-0.135747	0	0	-0.307742	0.158478	-0.134607	0.730508	-0.386642	0.679182	0.774741	1.21941	0	0	0.193988	-0.338451	0.0837288	1.22066	1.43406	0	0
3.95	-2.49698	1.37544	1.03093	0.644248	1.2373	1.05016	0.545322	0.109701	0.0868857	0.820408	-0.163932	0	0	0.0325128	-0.178036	-0.453983	0.41998	-0.135313	0	0	-0.305805	0.158564	-0.132431	0.719485	-0.389151	0.662781	0.787066	1.23228	0	0	0.184172	-0.333929	0.0738714	1.23017	1.44287	0	0
3.96	-2.50435	1.37031	1.03586	0.644203	1.23503	1.04968	0.558889	0.113752	0.090018	0.799642	-0.169039	0	0	0.0356005	-0.178741	-0.453426	0.419834	-0.134712	0	0	-0.303931	0.158272	-0.130218	0.708224	-0.391445	0.64627	0.799957	1.2446	0	0	0.174181	-0.329949	0.0643303	1.24011	1.45119	0	0
